<?xml version="1.0" encoding="UTF-8" standalone="no"?>
<!-- Created with Inkscape (http://www.inkscape.org/) -->

<svg
   xmlns:dc="http://purl.org/dc/elements/1.1/"
   xmlns:cc="http://creativecommons.org/ns#"
   xmlns:rdf="http://www.w3.org/1999/02/22-rdf-syntax-ns#"
   xmlns:svg="http://www.w3.org/2000/svg"
   xmlns="http://www.w3.org/2000/svg"
   xmlns:sodipodi="http://sodipodi.sourceforge.net/DTD/sodipodi-0.dtd"
   xmlns:inkscape="http://www.inkscape.org/namespaces/inkscape"
   width="198.59227"
   height="169.75797"
   id="svg2"
   version="1.1"
   inkscape:version="0.48.4 r9939"
   sodipodi:docname="BFolder.svg"
   inkscape:export-filename="C:\Users\Kaitlin\Documents\GitHub\Bunch\ver1\BFolder.png"
   inkscape:export-xdpi="90"
   inkscape:export-ydpi="90">
  <defs
     id="defs4" />
  <sodipodi:namedview
     id="base"
     pagecolor="#ffffff"
     bordercolor="#666666"
     borderopacity="1.0"
     inkscape:pageopacity="0.0"
     inkscape:pageshadow="2"
     inkscape:zoom="2.2907995"
     inkscape:cx="50.683172"
     inkscape:cy="71.035928"
     inkscape:document-units="px"
     inkscape:current-layer="layer1"
     showgrid="false"
     fit-margin-top="0"
     fit-margin-left="0"
     fit-margin-right="0"
     fit-margin-bottom="0"
     inkscape:window-width="1536"
     inkscape:window-height="803"
     inkscape:window-x="-8"
     inkscape:window-y="-8"
     inkscape:window-maximized="1" />
  <metadata
     id="metadata7">
    <rdf:RDF>
      <cc:Work
         rdf:about="">
        <dc:format>image/svg+xml</dc:format>
        <dc:type
           rdf:resource="http://purl.org/dc/dcmitype/StillImage" />
        <dc:title />
      </cc:Work>
    </rdf:RDF>
  </metadata>
  <g
     inkscape:label="Layer 1"
     inkscape:groupmode="layer"
     id="layer1"
     transform="translate(-353.86022,-591.11009)">
    <path
       sodipodi:nodetypes="cccccccccccc"
       inkscape:connector-curvature="0"
       id="path3853"
       d="m 543.20705,758.51029 -187.84683,0.85776 4.68111,-155.84407 23.03787,0.50695 23.03785,0.50686 23.03788,0.50685 23.03788,0.50684 20.3568,-12.94139 27.23679,0.72198 21.52003,13.74007 23.03785,0.50694 -1.94914,39.3473"
       style="fill:#c19f00;fill-opacity:1;stroke:#503400;stroke-width:3;stroke-miterlimit:4;stroke-opacity:1;stroke-dasharray:none" />
    <path
       style="fill:#fcd000;fill-opacity:1;stroke:#503400;stroke-width:3.07051516;stroke-miterlimit:4;stroke-opacity:1;stroke-dasharray:none"
       d="m 356.50468,758.66235 6.94889,-117.26713 187.77233,-0.10217 -8.1189,117.46076 z"
       id="path3851"
       inkscape:connector-curvature="0"
       sodipodi:nodetypes="ccccc" />
    <path
       style="fill:#503400;fill-opacity:1;stroke:#644300;display:inline;stroke-opacity:1"
       d="m 394.09978,657.44407 c 0.71722,-1.43852 1.49809,-2.67907 3.65724,-3.66992 8.59964,-0.57039 16.43565,8.65601 19.38006,10.74028 5.8888,4.16855 13.2014,8.71942 20.79678,9.28199 2.58887,0.19172 5.40283,-0.18687 8.27733,-0.87266 1.43725,-0.3429 1.9461,-0.51802 2.00211,-0.53062 l 8.31252,-2.88468 c 5.66188,-2.07404 9.23322,-3.62476 12.74569,-3.94583 2.80087,-0.25603 5.39551,1.20834 8.17743,1.24528 2.18104,0.0289 4.94659,0.0314 6.59137,-0.80369 1.64475,-0.83509 2.28247,-4.89117 3.5192,-7.27698 0.92384,-1.78228 1.98032,-4.50435 3.32193,-3.93828 2.16313,0.91272 2.70141,5.76076 -0.18824,8.53049 -2.48168,2.37869 -3.99981,2.80458 -5.89046,7.31108 -1.12406,2.67925 -3.0863,13.29791 -6.99127,18.21034 -5.8293,7.33321 -11.39935,9.81247 -22.24463,13.92834 -3.32732,1.27021 -6.46277,2.02739 -9.37638,2.19137 -3.34035,0.3867 -6.69633,0.38439 -10.35796,0.088 -7.32323,-0.59279 -14.98122,-2.59236 -21.74294,-6.16199 -13.52344,-7.1393 -23.46171,-20.55864 -19.9664,-41.56307"
       id="path2987"
       inkscape:connector-curvature="0"
       sodipodi:nodetypes="ccsssccsassascaccssc" />
    <path
       style="fill:#503400;fill-opacity:1;stroke:#644300;display:inline;stroke-opacity:1"
       d="m 394.17691,695.59564 c 0.17651,-1.61649 0.49156,-3.0747 2.28286,-4.84646 8.40823,-3.9285 19.74652,1.52252 23.48533,2.28967 7.47765,1.53434 16.52725,2.86 24.35585,0.37833 2.66835,-0.84587 5.34727,-2.30922 7.97099,-4.08114 1.31187,-0.88595 1.75607,-1.24939 1.80748,-1.28321 l 7.24727,-5.95939 c 4.89509,-4.16027 7.89131,-7.00913 11.29238,-8.69532 2.71202,-1.34459 5.86628,-1.01355 8.66979,-2.07918 2.198,-0.83548 4.97211,-1.92662 6.30641,-3.35069 1.33427,-1.42405 0.44362,-5.4345 0.7837,-8.13413 0.25405,-2.01668 0.28659,-4.95663 1.84543,-4.96253 2.51344,-0.01 4.88211,4.26983 3.02932,7.97869 -1.59119,3.18523 -2.95284,4.18007 -3.14867,9.10323 -0.11643,2.92699 1.92174,13.54193 -0.14084,19.6376 -3.079,9.09957 -7.72917,13.59902 -17.05172,21.70057 -2.85733,2.49246 -5.7158,4.43369 -8.57562,5.73756 -3.20371,1.67896 -6.56983,3.00365 -10.35337,4.1767 -7.56708,2.34612 -16.00059,3.52097 -24.12762,2.8867 -16.25407,-1.26854 -31.28219,-9.77355 -35.70103,-30.61795"
       id="path3855"
       inkscape:connector-curvature="0"
       sodipodi:nodetypes="ccsssccsassascaccssc" />
    <path
       sodipodi:nodetypes="ccsssccsassascaccssc"
       inkscape:connector-curvature="0"
       id="path2985"
       d="m 421.76532,733.36022 c -0.5518,-1.52961 -0.90959,-2.97792 -0.0791,-5.35662 5.82651,-7.22379 18.40677,-7.30984 22.10236,-8.26373 7.39119,-1.90777 16.10273,-4.69375 22.04438,-10.36319 2.02518,-1.93242 3.78852,-4.42413 5.36668,-7.16877 0.78908,-1.37232 1.02837,-1.89399 1.0597,-1.94697 l 3.89118,-8.53789 c 2.56891,-5.88818 4.00842,-9.76388 6.32249,-12.77312 1.84527,-2.39958 4.82412,-3.48834 6.87414,-5.67755 1.60725,-1.71639 3.61966,-3.9156 4.19242,-5.78113 0.57275,-1.86552 -1.98966,-5.0766 -2.87051,-7.65105 -0.65801,-1.92317 -1.92073,-4.57832 -0.52307,-5.26865 2.25358,-1.11306 6.26181,1.69004 6.22734,5.8358 -0.0296,3.56044 -0.81555,5.05244 1.172,9.56082 1.18166,2.68039 7.67716,11.31981 8.50311,17.70177 1.23298,9.52691 -0.96687,15.61212 -5.78087,26.98624 -1.47137,3.49453 -3.18598,6.49442 -5.18189,8.92239 -2.13998,2.916 -4.58155,5.58515 -7.4647,8.30152 -5.76629,5.43276 -12.82558,10.19413 -20.40457,13.19578 -15.158,6.00325 -32.39479,4.96747 -45.52403,-11.8146"
       style="fill:#503400;fill-opacity:1;stroke:#644300;display:inline;stroke-opacity:1" />
  </g>
</svg>
