<?xml version="1.0" encoding="UTF-8" standalone="no"?>
<!-- Created with Inkscape (http://www.inkscape.org/) -->

<svg
   xmlns:dc="http://purl.org/dc/elements/1.1/"
   xmlns:cc="http://creativecommons.org/ns#"
   xmlns:rdf="http://www.w3.org/1999/02/22-rdf-syntax-ns#"
   xmlns:svg="http://www.w3.org/2000/svg"
   xmlns="http://www.w3.org/2000/svg"
   xmlns:sodipodi="http://sodipodi.sourceforge.net/DTD/sodipodi-0.dtd"
   xmlns:inkscape="http://www.inkscape.org/namespaces/inkscape"
   width="189.6707"
   height="168.89912"
   id="svg2"
   version="1.1"
   inkscape:version="0.48.4 r9939"
   sodipodi:docname="BIcon.svg"
   inkscape:export-filename="C:\Users\Kaitlin\Documents\GitHub\Bunch\ver1\BIcon.png"
   inkscape:export-xdpi="90"
   inkscape:export-ydpi="90">
  <defs
     id="defs4" />
  <sodipodi:namedview
     id="base"
     pagecolor="#ffffff"
     bordercolor="#666666"
     borderopacity="1.0"
     inkscape:pageopacity="0.0"
     inkscape:pageshadow="2"
     inkscape:zoom="1.4"
     inkscape:cx="1.8909527"
     inkscape:cy="66.410492"
     inkscape:document-units="px"
     inkscape:current-layer="layer1"
     showgrid="false"
     fit-margin-top="0"
     fit-margin-left="0"
     fit-margin-right="0"
     fit-margin-bottom="0"
     inkscape:window-width="1536"
     inkscape:window-height="803"
     inkscape:window-x="-8"
     inkscape:window-y="-8"
     inkscape:window-maximized="1" />
  <metadata
     id="metadata7">
    <rdf:RDF>
      <cc:Work
         rdf:about="">
        <dc:format>image/svg+xml</dc:format>
        <dc:type
           rdf:resource="http://purl.org/dc/dcmitype/StillImage" />
        <dc:title></dc:title>
      </cc:Work>
    </rdf:RDF>
  </metadata>
  <g
     inkscape:label="Layer 1"
     inkscape:groupmode="layer"
     id="layer1"
     transform="translate(-264.39406,-497.52227)">
    <path
       style="fill:#503400;fill-opacity:1;stroke:none;display:inline"
       d="m 264.58431,621.33193 c -0.38835,-3.26503 -0.42764,-6.28084 2.33583,-10.58227 14.98203,-11.54413 40.1096,-5.93194 47.92342,-6.11149 15.62763,-0.3591 34.29708,-1.84039 48.78513,-10.27148 4.93819,-2.87373 9.61459,-6.96893 14.03942,-11.64716 2.21243,-2.33914 2.93247,-3.25619 3.01958,-3.3461 l 11.73437,-15.02074 c 7.86397,-10.41176 12.53884,-17.38053 18.55442,-22.24149 4.79686,-3.87615 11.24412,-4.65064 16.3514,-8.01853 4.00419,-2.64046 9.0411,-6.04531 11.05173,-9.45488 2.01061,-3.40954 -1.60454,-10.909 -2.16266,-16.38229 -0.41696,-4.08865 -1.69905,-9.89634 1.40955,-10.6131 5.01222,-1.15558 11.70052,6.20508 9.70189,14.35124 -1.71645,6.99606 -3.97836,9.57222 -2.11353,19.36157 1.10868,5.82011 10.04021,25.81424 8.7164,38.75832 -1.97613,19.32285 -9.19585,30.29215 -24.09079,50.47262 -4.56094,6.20369 -9.37672,11.32174 -14.48723,15.18452 -5.625,4.75742 -11.73653,8.89025 -18.75061,12.91309 -14.02819,8.04572 -30.32231,14.1754 -46.83364,16.60177 -33.0227,4.85267 -66.91411,-5.10819 -85.28412,-44.18194"
       id="path3855-1"
       inkscape:connector-curvature="0"
       sodipodi:nodetypes="ccsssccsassascaccssc" />
  </g>
</svg>
